<svg xmlns="http://www.w3.org/2000/svg" viewBox="0 0 168 27.715"><defs><style>.a{fill:#0288d1;}.b{fill:#00e676;}.c{fill:#7d8182;}</style></defs><path class="a" d="M92.716,0,78.928,2.31h0c-3.049.508-5.428,5.474-5.428,11.5s2.379,10.994,5.428,11.5h0l13.765,2.4h0c-3.28-1.155-5.5-6.259-5.5-13.9S89.529.947,92.716,0" transform="translate(-56.524)"/><path class="a" d="M40.053,25.193a17.141,17.141,0,0,0,2.286,9.123l-9.077-1.755A19.147,19.147,0,0,1,31.9,25.193a17.7,17.7,0,0,1,1.963-8.546h0L43.425,14.8C41.416,16.648,40.053,20.62,40.053,25.193Z" transform="translate(-24.532 -11.382)"/><path class="a" d="M7.021,45.18a19.96,19.96,0,0,1-.993-6.374A19.644,19.644,0,0,1,7,32.5l-4.6.878c-1.34.208-2.4,2.564-2.4,5.474,0,2.864,1.016,5.2,2.333,5.451Z" transform="translate(0 -24.994)"/><path class="a" d="M181.925,24.854a1.5,1.5,0,0,1-1.5,1.5h-2.887v-5.82H175.92v5.82h-3a1.5,1.5,0,0,1-1.5-1.5V14.9H169.8v9.954a3.135,3.135,0,0,0,3.118,3.118h7.506a3.135,3.135,0,0,0,3.118-3.118V14.9h-1.617Z" transform="translate(-130.583 -11.459)"/><path class="a" d="M308.324,14.9h-7.506a3.135,3.135,0,0,0-3.118,3.118v9.954h1.617V22.221h10.509v5.751h1.617V18.018A3.12,3.12,0,0,0,308.324,14.9Zm-9.007,5.7V18.018a1.5,1.5,0,0,1,1.5-1.5h7.506a1.5,1.5,0,0,1,1.5,1.5V20.6Z" transform="translate(-228.943 -11.459)"/><path class="a" d="M368.814,14.9H361.7v1.617h7.114V27.949h1.617V16.517h7.137V14.9h-8.753Z" transform="translate(-278.162 -11.459)"/><path class="b" d="M551.425,24.854a1.5,1.5,0,0,1-1.5,1.5h-7.506a1.5,1.5,0,0,1-1.5-1.5V14.9H539.3v9.954a3.135,3.135,0,0,0,3.118,3.118h7.506a3.135,3.135,0,0,0,3.118-3.118V14.9h-1.617Z" transform="translate(-414.743 -11.459)"/><path class="b" d="M614.124,14.9h-7.506a3.135,3.135,0,0,0-3.118,3.118v9.954h1.617V22.891h9.007a3.135,3.135,0,0,0,3.118-3.118V18.018A3.12,3.12,0,0,0,614.124,14.9Zm1.5,4.873a1.5,1.5,0,0,1-1.5,1.5h-9.007V18.018a1.5,1.5,0,0,1,1.5-1.5h7.506a1.5,1.5,0,0,1,1.5,1.5Z" transform="translate(-464.116 -11.459)"/><path class="a" d="M454.024,14.9h-7.506a3.135,3.135,0,0,0-3.118,3.118v1.293a3.135,3.135,0,0,0,3.118,3.118h7.506a1.5,1.5,0,0,1,1.5,1.5v.831a1.5,1.5,0,0,1-1.5,1.5h-7.506a1.5,1.5,0,0,1-1.5-1.5v-.808H443.4v.808a3.135,3.135,0,0,0,3.118,3.118h7.506a3.135,3.135,0,0,0,3.118-3.118v-.831a3.135,3.135,0,0,0-3.118-3.118h-7.506a1.5,1.5,0,0,1-1.5-1.5V18.018a1.5,1.5,0,0,1,1.5-1.5h7.506a1.5,1.5,0,0,1,1.5,1.5v.808h1.617v-.808A3.12,3.12,0,0,0,454.024,14.9Z" transform="translate(-340.993 -11.459)"/><path class="b" d="M678.524,14.9h-7.506a3.135,3.135,0,0,0-3.118,3.118v.808h1.617v-.808a1.5,1.5,0,0,1,1.5-1.5h7.506a1.5,1.5,0,0,1,1.5,1.5v.831a1.5,1.5,0,0,1-1.5,1.5H675.8a3.135,3.135,0,0,0-3.118,3.118V25.2H674.3V23.469a1.5,1.5,0,0,1,1.5-1.5h2.725a3.135,3.135,0,0,0,3.118-3.118v-.831A3.12,3.12,0,0,0,678.524,14.9Z" transform="translate(-513.642 -11.459)"/><path class="a" d="M245.948,20.528H235.417V14.8H233.8V27.872h1.617V22.145h10.532v5.728h1.617V14.8h-1.617Z" transform="translate(-179.802 -11.382)"/><path class="a" d="M437.672,13.2,436.586,12a5.406,5.406,0,0,0-1.686,3.742h1.617A4,4,0,0,1,437.672,13.2Z" transform="translate(-334.456 -9.228)"/><path class="b" d="M689.255,64a.853.853,0,0,0-.855.855.868.868,0,0,0,.855.855.855.855,0,1,0,0-1.709Z" transform="translate(-529.407 -49.219)"/><g transform="translate(39.356 19.77)"><path class="c" d="M171.07,85.9v4.365h2.194v.67H170.4V85.9Z" transform="translate(-170.4 -85.831)"/><path class="c" d="M209.619,90.681H208.9l-.37-.831h-2.148l-.37.831H205.3l2.171-5.081Zm-2.171-1.363h.831c-.139-.323-.277-.647-.416-1.016s-.277-.693-.416-1.016c-.139.323-.277.67-.416,1.016s-.277.693-.416,1.016Z" transform="translate(-197.24 -85.6)"/><path class="c" d="M250.68,89.064V85.646h.67v5.127l-3.28-3.511V90.7h-.67V85.6Z" transform="translate(-229.616 -85.6)"/><path class="c" d="M290.379,85.7h.162a3.46,3.46,0,0,1,.508.046l.485.139a2.634,2.634,0,0,1,.439.231c.069.046.139.092.231.162l-.485.485a1.757,1.757,0,0,0-.439-.277,1.919,1.919,0,0,0-1.432,0,2.042,2.042,0,0,0-1.016,1.016,1.919,1.919,0,0,0,0,1.432,2.042,2.042,0,0,0,1.016,1.016,1.882,1.882,0,0,0,.716.139,1.6,1.6,0,0,0,.577-.092,1.5,1.5,0,0,0,.508-.254,1.554,1.554,0,0,0,.346-.323,2.288,2.288,0,0,0,.254-.393l.139-.3H290.7V88.1h2.379a3.44,3.44,0,0,1-.139.993,2.288,2.288,0,0,1-.6.947,2.387,2.387,0,0,1-.831.554,2.684,2.684,0,0,1-.97.185,2.5,2.5,0,0,1-.97-.185,2.548,2.548,0,0,1-1.386-1.386,2.638,2.638,0,0,1,0-1.94,2.548,2.548,0,0,1,1.386-1.386,2.084,2.084,0,0,1,.808-.185Z" transform="translate(-260.839 -85.677)"/><path class="c" d="M337.373,85.9v3.095a2.035,2.035,0,0,1-.139.762,2.292,2.292,0,0,1-.439.647h0a1.892,1.892,0,0,1-.647.439,2.165,2.165,0,0,1-1.524,0,2.078,2.078,0,0,1-1.086-1.086,2.035,2.035,0,0,1-.139-.762V85.9h.67v3.095a1.243,1.243,0,0,0,.092.508,1.633,1.633,0,0,0,.277.416.943.943,0,0,0,.416.277,1.243,1.243,0,0,0,.508.092,1.253,1.253,0,0,0,.924-.37,1.371,1.371,0,0,0,.3-.416,1.243,1.243,0,0,0,.092-.508V85.9Z" transform="translate(-295.754 -85.831)"/><path class="c" d="M376.7,90.681h-.716l-.37-.831h-2.125l-.37.831H372.4l2.171-5.081Zm-2.148-1.363h.831c-.139-.323-.277-.647-.416-1.016s-.277-.693-.416-1.016c-.139.323-.277.67-.416,1.016-.139.37-.277.693-.416,1.016Z" transform="translate(-325.746 -85.6)"/><path class="c" d="M414.4,85.7h.162a3.46,3.46,0,0,1,.508.046l.485.139a2.634,2.634,0,0,1,.439.231c.069.046.139.092.231.162l-.485.485a1.756,1.756,0,0,0-.439-.277,1.919,1.919,0,0,0-1.432,0,2.041,2.041,0,0,0-1.016,1.016,1.918,1.918,0,0,0,0,1.432,2.041,2.041,0,0,0,1.016,1.016,1.882,1.882,0,0,0,.716.139,1.6,1.6,0,0,0,.577-.092,1.5,1.5,0,0,0,.508-.254,1.554,1.554,0,0,0,.346-.323,2.288,2.288,0,0,0,.254-.393l.139-.3h-1.686V88.1h2.356a3.44,3.44,0,0,1-.139.993,2.288,2.288,0,0,1-.6.947,2.386,2.386,0,0,1-.831.554,2.684,2.684,0,0,1-.97.185,2.5,2.5,0,0,1-.97-.185,2.548,2.548,0,0,1-1.386-1.386,2.638,2.638,0,0,1,0-1.94,2.548,2.548,0,0,1,1.386-1.386,2.206,2.206,0,0,1,.831-.185Z" transform="translate(-356.2 -85.677)"/><path class="c" d="M460.264,85.8v.67H458.07v1.524h1.64v.67h-1.64v1.524h2.194v.67H457.4V85.8Z" transform="translate(-391.115 -85.754)"/><path class="c" d="M510.025,89.988a1.722,1.722,0,0,0,.277-.162.586.586,0,0,0,.185-.231.64.64,0,0,0,.069-.3.831.831,0,0,0-.046-.254,1.271,1.271,0,0,0-.162-.208,2,2,0,0,0-.231-.162,2.252,2.252,0,0,0-.254-.115c-.092-.023-.185-.069-.277-.092a3.621,3.621,0,0,1-.6-.231,1.5,1.5,0,0,1-.462-.393,1.171,1.171,0,0,1-.208-.37,1.308,1.308,0,0,1-.069-.416,1.4,1.4,0,0,1,.115-.554,1.526,1.526,0,0,1,.323-.462,2.083,2.083,0,0,1,.462-.323,1.587,1.587,0,0,1,.554-.115,1.243,1.243,0,0,1,.508.092,1.672,1.672,0,0,1,.439.254,1.378,1.378,0,0,1,.439.693l-.67.139a.589.589,0,0,0-.185-.277.7.7,0,0,0-.531-.231.711.711,0,0,0-.3.069.954.954,0,0,0-.254.162.6.6,0,0,0-.162.254.77.77,0,0,0-.046.508.372.372,0,0,0,.092.162.392.392,0,0,0,.139.139.977.977,0,0,1,.162.115,1.36,1.36,0,0,1,.185.092,1.591,1.591,0,0,1,.185.069,1.591,1.591,0,0,0,.185.069.587.587,0,0,0,.162.046,2.331,2.331,0,0,1,.346.162c.115.069.208.139.323.208a1.45,1.45,0,0,1,.254.277,1.472,1.472,0,0,1,.185.323,1.079,1.079,0,0,1,.069.393,1.252,1.252,0,0,1-.139.577,1.428,1.428,0,0,1-.346.462,1.319,1.319,0,0,1-.485.3,1.608,1.608,0,0,1-.577.115,1.524,1.524,0,0,1-.624-.139,1.692,1.692,0,0,1-.531-.37,1.351,1.351,0,0,1-.323-.554l.67-.139a.719.719,0,0,0,.323.37.909.909,0,0,0,.485.139A1.25,1.25,0,0,0,510.025,89.988Z" transform="translate(-430.182 -85.6)"/><path class="c" d="M546.441,85.7a3.459,3.459,0,0,1,.508.046,2,2,0,0,1,.485.162c.162.069.3.162.439.231a2,2,0,0,1,.231.162l-.485.485a1.756,1.756,0,0,0-.439-.277,1.919,1.919,0,0,0-1.432,0,1.757,1.757,0,0,0-.6.416,2.009,2.009,0,0,0-.416.6h0a1.882,1.882,0,0,0-.139.716,1.8,1.8,0,0,0,.139.716,2.041,2.041,0,0,0,1.016,1.016,1.919,1.919,0,0,0,1.432,0,1.421,1.421,0,0,0,.439-.277l.485.485a2.005,2.005,0,0,1-.231.162,1.6,1.6,0,0,1-.439.231,1.917,1.917,0,0,1-.485.139,3.458,3.458,0,0,1-.508.046,2.684,2.684,0,0,1-.97-.185,2.548,2.548,0,0,1-1.386-1.386,2.684,2.684,0,0,1-.185-.97,2.592,2.592,0,0,1,.185-.97,2.548,2.548,0,0,1,1.386-1.386,2.334,2.334,0,0,1,.693-.162Z" transform="translate(-457.637 -85.677)"/><path class="c" d="M586.17,85.9v2.171h2.24V85.9h.67v5.035h-.67V88.764h-2.24v2.171h-.67V85.9Z" transform="translate(-489.629 -85.831)"/><path class="c" d="M627.911,85.943a2.461,2.461,0,0,1,.831.577,2.387,2.387,0,0,1,.554.831,2.639,2.639,0,0,1,0,1.94,2.757,2.757,0,0,1-.554.831,2.386,2.386,0,0,1-.831.554,2.639,2.639,0,0,1-1.94,0,2.548,2.548,0,0,1-1.386-1.386,2.684,2.684,0,0,1-.185-.97,2.592,2.592,0,0,1,.185-.97,2.548,2.548,0,0,1,1.386-1.386,2.685,2.685,0,0,1,.97-.185A1.874,1.874,0,0,1,627.911,85.943Zm-1.686.624a1.562,1.562,0,0,0-.6.416,2.009,2.009,0,0,0-.416.6,1.882,1.882,0,0,0-.139.716,1.8,1.8,0,0,0,.139.716,2.009,2.009,0,0,0,.416.6,1.757,1.757,0,0,0,.6.416,1.919,1.919,0,0,0,1.432,0,1.757,1.757,0,0,0,.6-.416,2.01,2.01,0,0,0,.416-.6,1.8,1.8,0,0,0,.139-.716,1.883,1.883,0,0,0-.139-.716,2.042,2.042,0,0,0-1.016-1.016,1.919,1.919,0,0,0-1.432,0Z" transform="translate(-519.544 -85.735)"/><path class="c" d="M672.611,85.943a2.461,2.461,0,0,1,.831.577,2.387,2.387,0,0,1,.554.831,2.639,2.639,0,0,1,0,1.94,2.757,2.757,0,0,1-.554.831,2.386,2.386,0,0,1-.831.554,2.639,2.639,0,0,1-1.94,0,2.547,2.547,0,0,1-1.386-1.386,2.685,2.685,0,0,1-.185-.97,2.592,2.592,0,0,1,.185-.97,2.547,2.547,0,0,1,1.386-1.386,2.684,2.684,0,0,1,.97-.185A1.961,1.961,0,0,1,672.611,85.943Zm-1.709.624a1.562,1.562,0,0,0-.6.416,2.01,2.01,0,0,0-.416.6,1.882,1.882,0,0,0-.139.716,1.8,1.8,0,0,0,.139.716,2.01,2.01,0,0,0,.416.6,1.757,1.757,0,0,0,.6.416,1.919,1.919,0,0,0,1.432,0,1.757,1.757,0,0,0,.6-.416,2.009,2.009,0,0,0,.416-.6,1.8,1.8,0,0,0,.139-.716,1.882,1.882,0,0,0-.139-.716,2.041,2.041,0,0,0-1.016-1.016,1.919,1.919,0,0,0-1.432,0Z" transform="translate(-553.92 -85.735)"/><path class="c" d="M715.17,85.9v4.365h2.194v.67H714.5V85.9Z" transform="translate(-588.835 -85.831)"/></g></svg>