<svg xmlns="http://www.w3.org/2000/svg" width="36" height="28"><rect id="backgroundrect" width="100%" height="100%" x="0" y="0" fill="none" stroke="none" class="" style=""/><defs><style>.a{fill:#0288d1;}.b{fill:#00e676;}.c{fill:#7d8182;}</style></defs><g class="currentLayer" style=""><title>Layer 1</title><path class="a" d="M36.19200173950195,0 L22.40400173950195,2.31 h0 c-3.049,0.508 -5.428,5.474 -5.428,11.5 s2.379,10.994 5.428,11.5 h0 l13.765,2.4 h0 c-3.2800000000000002,-1.155 -5.5,-6.259 -5.5,-13.9 S33.00500173950195,0.9470000000000002 36.19200173950195,0 " id="svg_1"/><path class="a" d="M15.521000411987302,13.81100003051758 a17.141,17.141 0 0 0 2.286,9.123 l-9.077,-1.7550000000000003 A19.147,19.147 0 0 1 7.368000411987303,13.81100003051758 a17.7,17.7 0 0 1 1.963,-8.546 h0 L18.893000411987302,3.418000030517579 C16.8840004119873,5.266000030517578 15.521000411987302,9.238000030517581 15.521000411987302,13.81100003051758 z" id="svg_2"/><path class="a" d="M7.021,20.186000518798828 a19.96,19.96 0 0 1 -0.993,-6.374 A19.644,19.644 0 0 1 7,7.506000518798828 l-4.6,0.8780000000000002 c-1.34,0.20800000000000005 -2.4,2.564 -2.4,5.474 c0,2.864 1.016,5.2 2.333,5.451 z" id="svg_3"/></g></svg>